<svg id="Layer_1" enable-background="new 0 0 498.1 498.1" height="512" viewBox="0 0 498.1 498.1" width="512" xmlns="http://www.w3.org/2000/svg"><g><g><path d="m270.379 96.126h-58c-8.284 0-15-6.716-15-15v-66.104c0-8.284 6.716-15 15-15h58c8.284 0 15 6.716 15 15v66.104c0 8.284-6.716 15-15 15z" fill="#56d9de"/></g><path d="m278.05 0h-29.003v96.104h29.003c8.284 0 15-6.716 15-15v-66.104c0-8.284-6.716-15-15-15z" fill="#19a9c3"/><path d="m424.342 68.74-25.545-17.544c-.003-.002-.006-.005-.009-.007s-.006-.004-.009-.006l-25.544-17.543c-6.829-4.689-16.167-2.956-20.857 3.872-4.69 6.829-2.956 16.167 3.873 20.856l13.189 9.058-17.4 25.334c-4.69 6.829-2.956 16.167 3.873 20.856 2.595 1.782 5.552 2.637 8.479 2.637 4.775 0 9.471-2.275 12.378-6.509l17.4-25.334 13.189 9.058c2.595 1.782 5.552 2.637 8.479 2.637 4.775 0 9.47-2.275 12.378-6.509 4.688-6.828 2.954-16.166-3.874-20.856z" fill="#295a96"/><path d="m404.67 122.399c-41.567-41.567-96.834-64.46-155.62-64.46s-114.053 22.893-155.62 64.46-64.46 96.835-64.46 155.62 22.893 114.053 64.46 155.62 96.834 64.46 155.62 64.46 114.053-22.893 155.62-64.46 64.46-96.835 64.46-155.62-22.893-114.052-64.46-155.62z" fill="#295a96"/><path d="m249.05 57.939c-.001 0-.002 0-.003 0v440.161h.003c58.786 0 114.053-22.893 155.62-64.46s64.46-96.835 64.46-155.62-22.893-114.053-64.46-155.62-96.835-64.461-155.62-64.461z" fill="#163756"/><g><path d="m249.05 442.022c-90.432 0-164.003-73.571-164.003-164.003s73.572-164.003 164.003-164.003c43.096 0 88.127 82.003 88.127 82.003s75.876 34.665 75.876 82c0 90.432-73.572 164.003-164.003 164.003z" fill="#ecf6fe"/></g><path d="m249.05 114.017c-.001 0-.002 0-.003 0v328.006h.003c90.432 0 164.003-73.571 164.003-164.003 0-48.127-90.889-82-90.889-82s-30.809-82.003-73.114-82.003z" fill="#d3e9fd"/><g><path d="m301.55 30h-105c-8.284 0-15-6.716-15-15s6.716-15 15-15h105c8.284 0 15 6.716 15 15s-6.716 15-15 15z" fill="#295a96"/></g><path d="m301.553 0h-52.503v30h52.503c8.284 0 15-6.716 15-15s-6.716-15-15-15z" fill="#163756"/><path d="m249.05 114.017c-.001 0-.002 0-.003 0v146.407c0 9.719 7.879 17.599 17.599 17.599h146.408v-.003c-.001-90.432-73.573-164.003-164.004-164.003z" fill="#f70b57"/></g></svg>